<?xml version="1.0" standalone="no"?>
<!DOCTYPE svg PUBLIC "-//W3C//DTD SVG 20010904//EN"
 "http://www.w3.org/TR/2001/REC-SVG-20010904/DTD/svg10.dtd">
<svg version="1.0" xmlns="http://www.w3.org/2000/svg"
 viewBox="0 0 256.000000 143.000000"
 preserveAspectRatio="none">

<g transform="translate(0.000000,143.000000) scale(0.100000,-0.100000)"
fill="#000000" stroke="none">
<path d="M0 715 l0 -715 1280 0 1280 0 0 715 0 715 -1280 0 -1280 0 0 -715z
m2530 530 l0 -155 -1250 0 -1250 0 0 155 0 155 1250 0 1250 0 0 -155z m-2
-357 l-3 -163 -1247 -3 -1248 -2 0 165 0 165 1250 0 1250 0 -2 -162z m2 -353
l0 -155 -1250 0 -1250 0 0 155 0 155 1250 0 1250 0 0 -155z m0 -350 l0 -155
-1250 0 -1250 0 0 155 0 155 1250 0 1250 0 0 -155z"/>
</g>
</svg>
