<?xml version="1.0" standalone="no"?>
<!DOCTYPE svg PUBLIC "-//W3C//DTD SVG 20010904//EN"
 "http://www.w3.org/TR/2001/REC-SVG-20010904/DTD/svg10.dtd">
<svg version="1.0" xmlns="http://www.w3.org/2000/svg"
 viewBox="0 0 80.000000 219.000000"
 preserveAspectRatio="xMidYMid meet">

<g transform="translate(0.000000,219.000000) scale(0.100000,-0.100000)"
fill="#000000" stroke="none">
<path d="M540 2172 c-47 -25 -125 -122 -163 -202 -27 -57 -31 -77 -35 -175 -2
-60 1 -143 7 -184 l12 -74 -113 -116 c-149 -153 -200 -230 -234 -356 -54 -197
50 -421 234 -508 61 -29 76 -32 169 -32 l101 0 17 -110 c26 -169 11 -249 -62
-322 -50 -50 -115 -71 -168 -53 l-37 12 51 29 c79 45 103 118 61 186 -26 44
-54 56 -113 50 -41 -3 -56 -11 -78 -35 -84 -94 -41 -229 83 -262 84 -23 208
20 252 87 48 74 54 145 30 368 l-6 60 49 17 c69 24 136 86 172 160 28 55 31
70 30 152 0 61 -6 105 -17 133 -50 122 -134 184 -263 191 l-76 4 -13 100 -12
99 59 62 c81 85 137 162 169 232 23 50 28 78 32 166 2 59 -1 130 -7 161 -14
68 -66 178 -83 178 -7 0 -29 -8 -48 -18z m85 -112 c19 -36 19 -141 1 -193 -24
-65 -78 -146 -155 -229 -64 -68 -76 -78 -82 -62 -13 34 -9 139 7 195 33 112
162 319 199 319 8 0 21 -13 30 -30z m-221 -780 c4 -30 9 -64 12 -76 4 -16 -3
-24 -34 -38 -111 -50 -192 -205 -163 -312 21 -78 103 -164 156 -164 16 0 13 6
-17 38 -44 44 -58 78 -58 136 0 55 43 123 97 154 l41 22 5 -22 c15 -64 69
-449 63 -455 -3 -3 -39 -6 -78 -7 -149 0 -259 85 -300 232 -33 122 -15 239 53
338 59 86 201 237 209 222 4 -7 10 -38 14 -68z m196 -260 c43 -22 65 -46 84
-90 41 -101 25 -218 -41 -291 -33 -37 -90 -75 -98 -67 -7 7 -75 439 -75 474 0
11 94 -8 130 -26z"/>
</g>
</svg>
