<?xml version="1.0" standalone="no"?>
<!DOCTYPE svg PUBLIC "-//W3C//DTD SVG 20010904//EN"
 "http://www.w3.org/TR/2001/REC-SVG-20010904/DTD/svg10.dtd">
<svg version="1.0" xmlns="http://www.w3.org/2000/svg"
 viewBox="0 0 67.000000 145.000000"
 preserveAspectRatio="xMidYMid meet">

<g transform="translate(0.000000,145.000000) scale(0.100000,-0.100000)"
fill="#000000" stroke="none">
<path d="M460 725 l0 -715 105 0 105 0 0 715 0 715 -105 0 -105 0 0 -715z"/>
<path d="M43 985 c-12 -9 -25 -31 -29 -51 -5 -28 -2 -40 17 -60 26 -28 48 -30
89 -9 55 28 45 102 -16 125 -33 13 -36 13 -61 -5z"/>
<path d="M31 624 c-59 -75 27 -153 103 -93 35 28 33 61 -5 93 -39 33 -72 33
-98 0z"/>
</g>
</svg>
